<svg id="svg" version="1.1" xmlns="http://www.w3.org/2000/svg" xmlns:xlink="http://www.w3.org/1999/xlink" width="400" height="309.3333333333333" viewBox="0, 0, 400,309.3333333333333"><g id="svgg"><path id="path0" d="M233.891 72.113 C 230.927 73.297,229.265 75.929,229.012 79.845 C 228.805 83.034,228.918 82.955,226.826 81.383 C 225.183 80.148,221.634 78.612,218.856 77.934 C 218.013 77.728,217.184 77.452,217.014 77.320 C 216.054 76.581,209.115 76.412,179.827 76.414 C 150.308 76.416,146.053 76.525,144.316 77.327 C 143.975 77.485,142.608 78.104,141.277 78.704 C 139.430 79.536,138.361 80.291,136.760 81.893 C 134.833 83.820,134.229 84.679,132.611 87.795 C 131.670 89.606,131.069 93.553,131.278 96.547 L 131.463 99.205 129.846 99.945 C 123.301 102.943,119.482 112.354,121.444 120.650 C 121.916 122.646,121.914 122.664,121.214 123.125 C 120.254 123.756,117.200 127.013,116.628 128.016 C 116.373 128.463,116.000 129.007,115.800 129.225 C 113.047 132.216,113.047 144.412,115.800 147.332 C 117.660 149.305,118.707 151.499,118.139 152.233 C 117.822 152.643,117.273 153.742,116.918 154.675 C 116.563 155.609,116.153 156.516,116.008 156.692 C 114.969 157.944,114.880 165.351,115.877 167.593 C 118.478 173.445,119.691 175.076,123.279 177.553 C 124.547 178.428,128.305 180.046,129.071 180.046 C 129.305 180.046,129.671 180.220,129.884 180.433 C 130.184 180.733,135.035 180.840,151.545 180.909 L 172.819 180.998 172.545 183.075 C 172.395 184.217,172.151 185.429,172.004 185.770 C 169.533 191.482,169.522 210.598,171.987 216.063 C 172.299 216.757,172.769 217.951,173.030 218.716 C 173.667 220.588,175.618 224.754,176.101 225.275 C 176.806 226.035,177.881 227.657,177.881 227.961 C 177.881 228.125,179.099 229.531,180.588 231.085 C 188.187 239.019,197.003 240.403,205.268 234.960 C 207.647 233.394,207.889 233.143,207.897 232.240 C 207.919 229.712,206.564 211.686,206.311 211.137 C 206.155 210.797,205.993 208.848,205.952 206.806 L 205.878 203.094 208.154 198.627 C 209.406 196.170,210.742 193.664,211.123 193.058 C 211.504 192.452,212.476 190.634,213.284 189.018 C 214.091 187.401,214.925 185.870,215.139 185.615 C 215.352 185.360,216.332 183.550,217.316 181.593 C 218.300 179.637,219.276 177.827,219.484 177.572 C 219.692 177.316,220.665 175.507,221.647 173.550 C 222.629 171.593,223.609 169.783,223.825 169.528 C 224.041 169.273,225.016 167.463,225.991 165.507 C 226.966 163.550,227.866 161.879,227.990 161.794 C 228.115 161.709,228.431 161.226,228.693 160.720 L 229.169 159.801 229.650 160.952 C 230.416 162.787,231.580 164.094,233.170 164.906 L 234.648 165.661 257.695 165.661 L 280.742 165.661 282.009 164.983 C 283.624 164.119,285.012 162.538,285.663 160.821 C 286.443 158.764,286.279 77.379,285.491 75.947 C 284.832 74.749,282.568 72.721,281.294 72.188 C 280.066 71.674,235.167 71.603,233.891 72.113 M215.351 84.734 C 218.941 85.652,221.377 86.768,224.098 88.740 C 225.477 89.740,227.196 90.858,227.920 91.225 L 229.234 91.892 229.226 120.733 L 229.218 149.575 226.838 151.585 C 225.530 152.691,224.030 154.014,223.506 154.524 C 222.418 155.584,200.146 196.738,199.172 199.488 C 198.232 202.144,198.164 205.657,198.885 214.230 C 199.243 218.484,199.611 223.009,199.701 224.285 C 199.792 225.561,199.940 227.200,200.030 227.928 L 200.195 229.251 198.738 229.896 C 192.427 232.688,184.841 227.398,180.539 217.204 C 177.095 209.046,176.725 204.106,178.659 192.111 C 179.563 186.502,181.593 173.533,181.593 173.366 C 181.593 173.303,170.279 173.214,156.451 173.169 L 131.309 173.086 129.261 172.078 C 120.744 167.884,120.538 158.768,128.816 152.431 C 131.600 150.299,131.625 150.465,128.256 148.747 C 120.870 144.979,118.932 136.604,124.139 130.955 C 125.596 129.374,127.132 128.529,130.781 127.300 C 133.807 126.282,133.715 126.625,131.683 123.925 C 125.292 115.429,128.683 106.482,138.902 104.881 C 142.649 104.294,142.484 104.605,140.762 101.375 C 136.899 94.132,138.931 87.622,145.943 84.775 C 148.215 83.852,211.756 83.815,215.351 84.734 " stroke="none" fill="#36486d" fill-rule="evenodd"></path><path id="path1" d="M146.017 84.968 C 139.393 87.271,137.341 93.862,140.942 101.262 C 142.658 104.788,142.804 104.493,138.995 105.187 C 128.677 107.067,125.466 115.047,131.633 123.481 C 134.067 126.810,134.058 126.620,131.818 127.243 C 124.662 129.232,121.477 132.625,121.439 138.298 C 121.408 142.823,123.278 145.543,128.555 148.648 C 130.172 149.600,131.415 150.507,131.318 150.665 C 131.220 150.823,130.277 151.603,129.221 152.400 C 124.571 155.907,123.409 157.695,123.189 161.681 C 122.941 166.188,125.136 169.891,129.257 171.914 L 131.013 172.776 156.381 172.931 C 181.519 173.084,181.747 173.091,181.679 173.705 C 181.642 174.045,180.836 179.474,179.889 185.770 C 177.663 200.574,177.477 202.451,177.879 206.071 C 179.614 221.676,189.545 233.117,198.415 229.730 L 199.882 229.169 199.703 227.578 C 199.161 222.747,198.005 204.433,198.167 203.248 C 198.530 200.594,199.276 198.135,200.230 196.442 C 200.757 195.507,202.120 193.001,203.258 190.874 C 205.199 187.246,207.012 183.883,211.848 174.942 C 215.684 167.851,217.869 163.781,220.154 159.474 C 222.512 155.030,222.689 154.817,226.837 151.386 L 228.925 149.660 228.925 120.840 L 228.925 92.020 227.781 91.408 C 227.152 91.072,225.725 90.129,224.610 89.312 C 221.795 87.250,218.051 85.470,215.370 84.920 C 211.899 84.207,148.080 84.251,146.017 84.968 " stroke="none" fill="#fbfbfb" fill-rule="evenodd"></path><path id="path2" d="M164.192 84.377 C 172.912 84.423,187.181 84.423,195.901 84.377 C 204.621 84.332,197.486 84.294,180.046 84.294 C 162.606 84.294,155.472 84.332,164.192 84.377 M228.537 91.796 C 228.838 92.009,228.939 98.311,229.003 120.822 L 229.085 149.575 229.082 120.675 C 229.080 95.251,229.024 91.761,228.616 91.650 C 228.274 91.556,228.253 91.595,228.537 91.796 M124.497 130.626 L 123.589 131.632 124.594 130.723 C 125.147 130.224,125.599 129.771,125.599 129.718 C 125.599 129.479,125.344 129.689,124.497 130.626 M122.899 162.413 C 122.899 163.179,122.960 163.492,123.033 163.109 C 123.107 162.726,123.107 162.100,123.033 161.717 C 122.960 161.334,122.899 161.647,122.899 162.413 M125.909 169.683 C 126.486 170.278,127.028 170.766,127.113 170.766 C 127.198 170.766,126.795 170.278,126.218 169.683 C 125.641 169.087,125.099 168.600,125.014 168.600 C 124.929 168.600,125.332 169.087,125.909 169.683 M157.137 173.162 C 176.058 173.226,181.464 173.329,181.677 173.629 C 181.878 173.912,181.916 173.891,181.823 173.550 C 181.712 173.142,178.720 173.085,157.283 173.083 L 132.869 173.080 157.137 173.162 M177.656 200.464 C 177.656 201.230,177.716 201.543,177.790 201.160 C 177.864 200.777,177.864 200.151,177.790 199.768 C 177.716 199.385,177.656 199.698,177.656 200.464 M177.650 205.568 C 177.653 206.249,177.716 206.491,177.790 206.106 C 177.864 205.721,177.862 205.165,177.784 204.869 C 177.707 204.573,177.646 204.888,177.650 205.568 " stroke="none" fill="#acacae" fill-rule="evenodd"></path><path id="path3" d="" stroke="none" fill="#9c9ca4" fill-rule="evenodd"></path><path id="path4" d="M177.334 202.939 C 177.334 203.534,177.398 203.778,177.475 203.480 C 177.553 203.183,177.553 202.695,177.475 202.398 C 177.398 202.100,177.334 202.343,177.334 202.939 M198.989 216.860 C 198.989 217.456,199.053 217.699,199.130 217.401 C 199.208 217.104,199.208 216.616,199.130 216.319 C 199.053 216.021,198.989 216.265,198.989 216.860 M199.298 220.882 C 199.298 221.477,199.362 221.721,199.440 221.423 C 199.518 221.125,199.518 220.638,199.440 220.340 C 199.362 220.043,199.298 220.286,199.298 220.882 M186.388 226.450 C 187.053 227.131,187.666 227.688,187.751 227.688 C 187.836 227.688,187.362 227.131,186.698 226.450 C 186.033 225.770,185.420 225.213,185.335 225.213 C 185.250 225.213,185.724 225.770,186.388 226.450 " stroke="none" fill="#8c8c8c" fill-rule="evenodd"></path></g></svg>