<svg id="svg" version="1.1" xmlns="http://www.w3.org/2000/svg" xmlns:xlink="http://www.w3.org/1999/xlink" width="400" height="309.3333333333333" viewBox="0, 0, 400,309.3333333333333"><g id="svgg"><path id="path0" d="M201.237 71.453 C 196.813 72.434,192.112 75.510,192.110 77.428 C 192.108 80.111,193.349 96.419,193.657 97.757 C 193.833 98.523,194.010 100.750,194.050 102.707 L 194.122 106.265 191.846 110.732 C 190.594 113.188,189.258 115.694,188.877 116.300 C 188.496 116.906,187.524 118.724,186.716 120.340 C 185.909 121.957,185.075 123.488,184.861 123.743 C 184.648 123.998,183.668 125.808,182.684 127.765 C 181.700 129.722,180.724 131.531,180.516 131.787 C 180.308 132.042,179.335 133.852,178.353 135.808 C 177.371 137.765,176.391 139.575,176.175 139.830 C 175.959 140.085,174.984 141.895,174.009 143.852 C 173.034 145.808,172.134 147.479,172.010 147.564 C 171.885 147.649,171.569 148.132,171.307 148.638 L 170.831 149.557 170.350 148.406 C 169.584 146.571,168.420 145.264,166.830 144.452 L 165.352 143.697 142.305 143.697 L 119.258 143.697 117.991 144.375 C 116.376 145.239,114.988 146.820,114.337 148.537 C 113.557 150.595,113.721 231.979,114.509 233.411 C 115.168 234.609,117.432 236.637,118.706 237.171 C 119.989 237.707,164.620 237.791,166.018 237.260 C 169.045 236.109,170.731 233.481,170.988 229.513 C 171.195 226.324,171.082 226.403,173.174 227.975 C 174.817 229.210,178.366 230.746,181.144 231.424 C 181.987 231.630,182.816 231.906,182.986 232.038 C 183.946 232.777,190.885 232.947,220.173 232.944 C 249.692 232.942,253.947 232.833,255.684 232.031 C 256.025 231.874,257.392 231.254,258.723 230.654 C 260.570 229.822,261.639 229.067,263.240 227.465 C 265.167 225.538,265.771 224.679,267.389 221.563 C 268.330 219.752,268.931 215.805,268.722 212.811 L 268.537 210.153 270.154 209.413 C 276.699 206.415,280.518 197.005,278.556 188.708 C 278.083 186.708,278.085 186.695,278.793 186.237 C 281.241 184.653,284.608 180.044,285.557 176.975 C 287.014 172.264,286.286 164.238,284.200 162.026 C 282.340 160.053,281.293 157.859,281.861 157.125 C 282.178 156.715,282.727 155.617,283.082 154.683 C 283.437 153.749,283.847 152.842,283.992 152.666 C 284.989 151.465,285.129 144.031,284.194 141.919 C 281.566 135.984,281.470 135.837,278.523 133.274 C 276.396 131.425,275.030 130.668,271.462 129.361 L 269.296 128.569 248.238 128.466 L 227.180 128.363 227.454 126.285 C 227.605 125.142,227.849 123.929,227.996 123.589 C 230.467 117.876,230.478 98.760,228.013 93.295 C 227.701 92.601,227.231 91.408,226.970 90.642 C 226.333 88.770,224.382 84.604,223.899 84.083 C 223.194 83.323,222.119 81.701,222.119 81.397 C 222.119 80.598,216.556 75.357,214.230 73.965 C 210.180 71.541,205.193 70.577,201.237 71.453 M207.915 79.226 C 214.391 80.835,221.285 92.270,222.404 103.256 C 222.824 107.384,222.454 111.008,220.278 124.053 C 219.781 127.030,219.221 130.580,219.032 131.941 C 218.844 133.302,218.616 134.796,218.526 135.260 L 218.361 136.103 243.519 136.188 L 268.677 136.272 270.737 137.248 C 275.015 139.275,277.030 142.430,277.030 147.100 C 277.030 151.519,275.758 153.625,270.923 157.209 C 268.444 159.047,268.365 158.799,272.080 160.855 C 276.891 163.519,278.577 166.171,278.577 171.075 C 278.577 176.980,276.070 179.889,268.987 182.206 C 267.796 182.596,266.768 182.960,266.703 183.017 C 266.638 183.073,267.361 184.133,268.311 185.372 C 274.622 193.613,271.482 202.593,261.675 204.352 C 260.252 204.607,258.777 204.883,258.398 204.964 C 257.727 205.109,257.752 205.195,259.260 208.017 C 262.852 214.740,261.277 220.972,255.176 224.185 L 253.519 225.058 219.335 225.058 L 185.151 225.058 182.367 224.026 C 179.163 222.838,177.489 221.932,175.097 220.090 C 174.161 219.370,172.804 218.485,172.080 218.123 L 170.766 217.466 170.770 188.625 L 170.774 159.783 173.983 157.068 L 177.192 154.352 186.396 137.269 C 191.459 127.873,196.409 118.724,197.396 116.937 C 202.357 107.964,202.503 105.998,200.008 81.757 C 199.736 79.112,203.110 78.031,207.915 79.226 " stroke="none" fill="#35476a" fill-rule="evenodd"></path><path id="path1" d="M203.712 79.105 C 203.202 79.165,202.189 79.431,201.463 79.697 L 200.141 80.180 200.307 81.621 C 200.399 82.414,200.825 88.005,201.253 94.045 C 202.312 108.977,202.505 107.948,196.609 118.794 C 195.267 121.261,193.312 124.880,192.263 126.837 C 189.101 132.737,185.828 138.820,183.441 143.233 C 182.198 145.530,180.372 148.940,179.382 150.812 C 177.539 154.297,177.018 154.895,173.009 158.127 L 171.075 159.685 171.075 188.533 L 171.075 217.380 172.544 218.183 C 173.353 218.625,174.780 219.561,175.715 220.263 C 182.075 225.037,180.810 224.903,219.608 224.903 C 255.781 224.903,254.108 224.993,256.829 222.915 C 261.330 219.478,262.107 214.348,259.070 208.118 C 257.334 204.555,257.138 204.931,261.125 204.171 C 271.317 202.229,274.481 194.238,268.367 185.877 C 265.900 182.503,265.856 182.824,268.911 181.927 C 275.494 179.996,278.588 176.469,278.568 170.920 C 278.552 166.578,276.752 163.872,272.055 161.132 C 268.041 158.790,268.139 159.026,270.452 157.282 C 275.303 153.623,276.590 151.680,276.811 147.677 C 277.059 143.170,274.864 139.468,270.743 137.444 L 268.987 136.582 243.697 136.497 C 219.034 136.415,218.407 136.398,218.407 135.822 C 218.407 135.496,219.110 130.523,219.970 124.769 C 222.541 107.559,222.565 107.329,222.180 103.635 C 220.687 89.343,212.228 78.108,203.712 79.105 " stroke="none" fill="#fbfbfb" fill-rule="evenodd"></path><path id="path2" d="M222.191 103.326 C 222.191 103.921,222.255 104.165,222.332 103.867 C 222.410 103.569,222.410 103.082,222.332 102.784 C 222.255 102.486,222.191 102.730,222.191 103.326 M222.191 109.513 C 222.191 110.108,222.255 110.352,222.332 110.054 C 222.410 109.756,222.410 109.269,222.332 108.971 C 222.255 108.674,222.191 108.917,222.191 109.513 M230.394 136.349 C 237.073 136.396,248.001 136.396,254.679 136.349 C 261.357 136.303,255.893 136.265,242.537 136.265 C 229.180 136.265,223.716 136.303,230.394 136.349 M273.782 139.675 C 274.359 140.271,274.901 140.758,274.986 140.758 C 275.071 140.758,274.668 140.271,274.091 139.675 C 273.514 139.080,272.972 138.592,272.887 138.592 C 272.802 138.592,273.205 139.080,273.782 139.675 M276.964 147.100 C 276.966 147.951,277.026 148.262,277.097 147.792 C 277.169 147.321,277.167 146.625,277.093 146.245 C 277.020 145.864,276.962 146.249,276.964 147.100 M273.917 154.447 L 273.009 155.452 274.014 154.544 C 274.567 154.044,275.019 153.592,275.019 153.538 C 275.019 153.299,274.764 153.510,273.917 154.447 M170.918 188.683 C 170.920 214.107,170.976 217.597,171.384 217.709 C 171.726 217.802,171.747 217.763,171.463 217.562 C 171.162 217.349,171.061 211.047,170.997 188.536 L 170.915 159.783 170.918 188.683 M275.312 178.732 L 274.246 179.892 275.406 178.826 C 276.486 177.833,276.708 177.572,276.472 177.572 C 276.420 177.572,275.898 178.094,275.312 178.732 M203.813 225.135 C 212.716 225.181,227.194 225.181,235.987 225.135 C 244.779 225.090,237.494 225.052,219.799 225.052 C 202.104 225.052,194.910 225.090,203.813 225.135 " stroke="none" fill="#adaeaf" fill-rule="evenodd"></path><path id="path3" d="M200.226 84.455 C 200.226 85.050,200.290 85.294,200.368 84.996 C 200.446 84.698,200.446 84.211,200.368 83.913 C 200.290 83.616,200.226 83.859,200.226 84.455 M200.536 88.167 C 200.536 88.763,200.599 89.006,200.677 88.708 C 200.755 88.411,200.755 87.923,200.677 87.626 C 200.599 87.328,200.536 87.572,200.536 88.167 M222.506 106.265 C 222.510 106.945,222.573 107.187,222.647 106.802 C 222.721 106.417,222.718 105.861,222.641 105.565 C 222.564 105.269,222.503 105.584,222.506 106.265 " stroke="none" fill="#888c8c" fill-rule="evenodd"></path><path id="path4" d="" stroke="none" fill="#94949c" fill-rule="evenodd"></path></g></svg>